# xmcd
#
# Track frame offsets:
#	150
#	17850
#	39637
#	56550
#	76800
#	94987
#	116550
#	139350
#	159000
#	177375
#	196050
#	216750
#	234900
#	248250
#	265425
#	282900
#
# Disc length: 4022 seconds
#
# Revision: 1
# Processed by: cddbd v1.5PL3 Copyright (c) Steve Scherf et al.
# Submitted via: CDex 1.50Beta5
#
DISCID=d50fb410
DTITLE=前川清 - ミレニアム・ベスト 流行歌
DYEAR=2000
DGENRE=Pop
TTITLE0=流行歌
TTITLE1=明日に
TTITLE2=神戸
TTITLE3=抱きしめて
TTITLE4=男と女の破片
TTITLE5=涙
TTITLE6=花の時・愛の時
TTITLE7=夏の花よ
TTITLE8=雪列車
TTITLE9=恋は終ったの
TTITLE10=さようならの彼方へ
TTITLE11=東京砂漠
TTITLE12=そして神戸
TTITLE13=恋唄
TTITLE14=噂の女
TTITLE15=長崎は今日も雨だった
EXTD=
EXTT0=
EXTT1=
EXTT2=
EXTT3=
EXTT4=
EXTT5=
EXTT6=
EXTT7=
EXTT8=
EXTT9=
EXTT10=
EXTT11=
EXTT12=
EXTT13=
EXTT14=
EXTT15=
PLAYORDER=
